<svg xmlns="http://www.w3.org/2000/svg" xmlns:xlink="http://www.w3.org/1999/xlink" version="1.1" x="0px" y="0px" viewBox="0 0 400 400" enable-background="new 0 0 400 400" xml:space="preserve"><path fill="#000000" stroke="#FFFFFF" stroke-miterlimit="10" d="M162.185,128.627c0,2.761-2.239,5-5,5H25.324c-2.761,0-5-2.239-5-5  v-0.465c0-2.761,2.239-5,5-5h131.86c2.761,0,5,2.239,5,5V128.627z"></path><path fill="#000000" stroke="#FFFFFF" stroke-miterlimit="10" d="M160.441,194.325c0,2.761-2.238,5-5,5H23.581c-2.761,0-5-2.239-5-5  v-0.465c0-2.761,2.239-5,5-5h131.86c2.762,0,5,2.239,5,5V194.325z"></path><path fill="#000000" stroke="#FFFFFF" stroke-miterlimit="10" d="M358.696,69.324c0,2.762-2.238,5-5,5h-131.86c-2.761,0-5-2.238-5-5  v-0.465c0-2.761,2.239-5,5-5h131.86c2.762,0,5,2.239,5,5V69.324z"></path><path fill="#000000" stroke="#FFFFFF" stroke-miterlimit="10" d="M342.999,337.929c0,2.762-2.238,5-5,5h-131.86  c-2.761,0-5-2.238-5-5v-0.465c0-2.761,2.239-5,5-5h131.86c2.762,0,5,2.239,5,5V337.929z"></path><path fill="#000000" stroke="#FFFFFF" stroke-miterlimit="10" d="M339.86,288.278c-2.761,0-5-2.238-5-5v-0.465c0-2.761,2.239-5,5-5  h16.843c11.311-22.363,17.69-47.645,17.69-74.419c0-15.516-2.145-30.53-6.146-44.767H256.72c-2.761,0-5-2.239-5-5v-0.465  c0-2.761,2.239-5,5-5h108.197c-22.723-64.027-83.821-109.884-155.64-109.884c-91.191,0-165.116,73.925-165.116,165.116  c0,19.808,3.492,38.798,9.886,56.396h122.323c2.762,0,5,2.239,5,5v0.465c0,2.762-2.238,5-5,5H58.27  c25.665,57.878,83.617,98.256,151.007,98.256c60.149,0,112.78-32.167,141.646-80.232H339.86z"></path></svg>